#!OML:ASF I:\Actors\actors\Patient Classification 1\Patient 1\Session 1\Subject1.ASF
:FULLY-SPECIFIED
:DEGREES
1219
root 0.803863 17.4935 9.48081 9.94755 -5.61574 -9.305
lowerback -2.86113 3.33989 6.52945
upperback -8.65632 4.64253 1.1165
thorax -7.07369 1.91517 -2.59622
lowerneck -13.6048 -3.49622 -0.278451
upperneck 31.854 -7.16078 6.10351
head 13.2174 -2.39152 1.33693
rclavicle -1.87852e-014 -6.36111e-015
rhumerus 28.1045 49.069 -50.3509
rradius 93.9362
rwrist 16.4951
rhand 27.5165 -44.287
rfingers 7.12502
rthumb 51.4609 295.293
lclavicle -1.87852e-014 -6.36111e-015
lhumerus -41.7001 -17.119 102.05
lradius 100.86
lwrist 12.4366
lhand -38.8915 -21.4793
lfingers 7.12502
lthumb -11.899 8.16256
rfemur -4.51417 24.2551 24.8985
rtibia 3.48479
rfoot -11.6608 -22.4674
rtoes 0.254243
lfemur 9.52362 -47.6866 -16.4792
ltibia -5.01662
lfoot -36.9102 57.7138
ltoes 23.298
1220
root 0.802511 17.4932 9.48296 9.97386 -5.78989 -9.36138
lowerback -2.89706 3.35874 6.55594
upperback -8.6559 4.66467 1.12263
thorax -7.04949 1.92535 -2.60231
lowerneck -13.6478 -3.52974 -0.367826
upperneck 31.8893 -7.23736 6.23729
head 13.2562 -2.41679 1.39245
rclavicle -8.54774e-015 -2.5842e-014
rhumerus 28.1553 49.657 -50.4574
rradius 94.4134
rwrist 15.505
rhand 27.3939 -41.155
rfingers 7.12502
rthumb 51.3494 298.361
lclavicle -8.54774e-015 -2.5842e-014
lhumerus -41.754 -16.955 102.051
lradius 100.92
lwrist 12.4291
lhand -38.8369 -21.6609
lfingers 7.12502
lthumb -11.8463 7.98397
rfemur -4.52332 24.364 24.9446
rtibia 3.46369
rfoot -11.6751 -22.3789
rtoes 0.31242
lfemur 9.65763 -47.7983 -16.5478
ltibia -5.02166
lfoot -37.4324 57.8446
ltoes 23.6259
1221
root 0.801687 17.4934 9.48322 9.9822 -5.80978 -9.34368
lowerback -2.89111 3.34141 6.50838
upperback -8.67265 4.64102 1.10331
thorax -7.07454 1.91476 -2.59698
lowerneck -13.6443 -3.58141 -0.415955
upperneck 31.903 -7.33999 6.34462
head 13.2741 -2.45371 1.42697
rclavicle 6.65929e-015 -1.23246e-014
rhumerus 27.9319 50.0941 -50.5917
rradius 95.1288
rwrist 14.0033
rhand 29.4453 -38.1328
rfingers 7.12502
rthumb 53.2075 302.507
lclavicle 6.65929e-015 -1.23246e-014
lhumerus -41.8498 -16.8657 102.098
lradius 100.96
lwrist 12.4348
lhand -38.8148 -21.7685
lfingers 7.12502
lthumb -11.8251 7.8776
rfemur -4.54419 24.2725 24.9103
rtibia 3.47032
rfoot -11.6874 -22.2769
rtoes 0.361804
lfemur 9.63383 -47.8121 -16.5669
ltibia -4.99209
lfoot -37.3421 57.8921
ltoes 23.4325
1222
root 0.800265 17.4934 9.48422 9.98133 -5.70037 -9.30947
lowerback -2.93274 3.30867 6.35314
upperback -8.67795 4.59319 1.12555
thorax -7.0716 1.90248 -2.4852
lowerneck -13.6469 -3.68952 -0.482777
upperneck 31.9087 -7.49698 6.38407
head 13.2897 -2.52562 1.42933
rclavicle -1.0138e-014 3.4191e-014
rhumerus 27.4478 50.4405 -50.6664
rradius 96.0208
rwrist 12.0647
rhand 33.4374 -36.2193
rfingers 7.12502
rthumb 56.7679 307.003
lclavicle -1.0138e-014 3.4191e-014
lhumerus -41.7839 -16.9013 102.203
lradius 100.789
lwrist 12.5141
lhand -38.8668 -21.8128
lfingers 7.12502
lthumb -11.8752 7.83049
rfemur -4.55444 24.0901 24.8743
rtibia 3.49129
rfoot -11.7254 -22.2116
rtoes 0.418561
lfemur 9.60678 -47.943 -16.5954
ltibia -4.95945
lfoot -37.2694 57.9466
ltoes 23.2633
1223
root 0.79757 17.4934 9.48577 9.9442 -5.47145 -9.29674
lowerback -2.94985 3.24791 6.21518
upperback -8.68736 4.51095 1.15039
thorax -7.08915 1.87134 -2.38133
lowerneck -13.6168 -3.79867 -0.594874
upperneck 31.8999 -7.65892 6.47829
head 13.2973 -2.59914 1.46063
rclavicle 3.46879e-014 6.79844e-014
rhumerus 26.7635 50.6738 -50.7745
rradius 96.9932
rwrist 9.30904
rhand 38.6102 -35.8283
rfingers 7.12502
rthumb 61.2335 311.755
lclavicle 3.46879e-014 6.79844e-014
lhumerus -41.6587 -16.9819 102.308
lradius 100.61
lwrist 12.5889
lhand -38.9054 -21.7914
lfingers 7.12502
lthumb -11.9124 7.84965
rfemur -4.48819 24.0522 24.9125
rtibia 3.49888
rfoot -11.8262 -22.3768
rtoes 0.550922
lfemur 9.6512 -48.1898 -16.6246
ltibia -4.9718
lfoot -37.1737 58.0306
ltoes 23.1233
1224
root 0.794188 17.4932 9.48711 9.89295 -5.16065 -9.35372
lowerback -2.94086 3.16337 6.17829
upperback -8.69544 4.40069 1.17827
thorax -7.11674 1.8193 -2.33082
lowerneck -13.6095 -3.89445 -0.739314
upperneck 31.9206 -7.80789 6.60939
head 13.3259 -2.66445 1.51402
rclavicle -5.82439e-014 -7.95139e-015
rhumerus 25.9345 50.7524 -50.8943
rradius 97.9552
rwrist 6.06576
rhand 44.0669 -37.1167
rfingers 7.12502
rthumb 65.6683 316.86
lclavicle -5.82439e-014 -7.95139e-015
lhumerus -41.6109 -17.0915 102.41
lradius 100.595
lwrist 12.6216
lhand -38.8673 -21.7067
lfingers 7.12502
lthumb -11.8757 7.93657
rfemur -4.38103 24.0128 25.0528
rtibia 3.47978
rfoot -11.904 -22.5927
rtoes 0.791411
lfemur 9.58877 -48.22 -16.4499
ltibia -4.9881
lfoot -36.7567 57.9127
ltoes 22.8723
1225
root 0.791096 17.4932 9.48863 9.85468 -4.80861 -9.42257
lowerback -2.96428 3.06626 6.13067
upperback -8.68748 4.2715 1.23338
thorax -7.11209 1.76109 -2.24304
lowerneck -13.6397 -4 -0.919475
upperneck 31.9349 -7.95759 6.72886
head 13.3613 -2.73508 1.56803
rclavicle -9.54166e-015 -3.97569e-016
rhumerus 24.9114 50.6004 -51.1099
rradius 98.7818
rwrist 3.51047
rhand 49.4121 -39.6454
rfingers 7.12502
rthumb 69.5622 323.272
lclavicle -9.54166e-015 -3.97569e-016
lhumerus -41.5601 -17.2545 102.517
lradius 100.606
lwrist 12.6171
lhand -38.8433 -21.6365
lfingers 7.12502
lthumb -11.8525 8.00806
rfemur -4.28089 23.9316 25.2028
rtibia 3.4466
rfoot -12.0018 -22.7979
rtoes 1.10174
lfemur 9.40266 -48.0849 -16.1495
ltibia -4.98933
lfoot -36.0588 57.6548
ltoes 22.4775
1226
root 0.790186 17.4932 9.48961 9.79026 -4.44961 -9.42943
lowerback -2.94626 2.97052 6.06813
upperback -8.67856 4.14584 1.26035
thorax -7.12816 1.70383 -2.17886
lowerneck -13.6356 -4.07947 -1.09828
upperneck 31.8815 -8.07468 6.88878
head 13.3611 -2.78878 1.64257
rclavicle -1.65985e-014 -1.19271e-015
rhumerus 23.7021 50.1988 -51.5171
rradius 99.4313
rwrist 2.35878
rhand 53.9259 -43.0369
rfingers 7.12502
rthumb 72.2815 330.344
lclavicle -1.65985e-014 -1.19271e-015
lhumerus -41.4797 -17.4479 102.578
lradius 100.577
lwrist 12.5915
lhand -38.7818 -21.5377
lfingers 7.12502
lthumb -11.7933 8.11031
rfemur -4.18648 23.7806 25.2739
rtibia 3.45509
rfoot -12.1532 -22.9794
rtoes 1.32759
lfemur 9.32121 -48.1439 -16.0329
ltibia -4.989
lfoot -35.2729 57.5991
ltoes 21.8755
1227
root 0.790322 17.4934 9.49037 9.72231 -4.13596 -9.41077
lowerback -2.92996 2.89249 6.03227
upperback -8.66696 4.04228 1.25998
thorax -7.13483 1.65499 -2.15808
lowerneck -13.6806 -4.14435 -1.26483
upperneck 31.8676 -8.17131 7.02865
head 13.3863 -2.83197 1.70998
rclavicle -8.64713e-015 -1.55052e-014
rhumerus 22.4102 49.6518 -52.0592
rradius 99.8537
rwrist 2.75846
rhand 57.0015 -46.7893
rfingers 7.12502
rthumb 73.6891 335.546
lclavicle -8.64713e-015 -1.55052e-014
lhumerus -41.4172 -17.6109 102.607
lradius 100.55
lwrist 12.5913
lhand -38.6393 -21.575
lfingers 7.12502
lthumb -11.6558 8.08083
rfemur -4.11698 23.6196 25.3003
rtibia 3.49646
rfoot -12.2688 -23.1306
rtoes 1.29648
lfemur 9.37102 -48.4152 -16.0747
ltibia -5.00278
lfoot -34.8797 57.6962
ltoes 21.5243
1228
root 0.789896 17.4941 9.49088 9.67686 -3.86249 -9.44776
lowerback -2.93143 2.81289 6.01269
upperback -8.66034 3.93873 1.31654
thorax -7.13997 1.60723 -2.08578
lowerneck -13.7727 -4.20386 -1.35336
upperneck 31.9597 -8.21713 6.94534
head 13.4474 -2.86833 1.68461
rclavicle 1.76918e-014 -7.15625e-015
rhumerus 21.1439 49.0997 -52.637
rradius 100.024
rwrist 4.15787
rhand 58.7393 -49.9129
rfingers 7.12502
rthumb 74.279 338.121
lclavicle 1.76918e-014 -7.15625e-015
lhumerus -41.3812 -17.6693 102.678
lradius 100.572
lwrist 12.5887
lhand -38.6612 -21.6904
lfingers 7.12502
lthumb -11.677 7.96421
rfemur -4.05868 23.5992 25.3935
rtibia 3.52656
rfoot -12.3397 -23.3494
rtoes 1.35123
lfemur 9.4218 -48.7093 -16.0514
ltibia -5.02123
lfoot -34.9527 57.7372
ltoes 21.5883
1229
root 0.790052 17.4947 9.49114 9.64056 -3.64653 -9.51605
lowerback -2.93692 2.72608 5.94657
upperback -8.65685 3.82919 1.45432
thorax -7.15442 1.56245 -1.90252
lowerneck -13.8179 -4.24 -1.4602
upperneck 32.0668 -8.19447 6.77789
head 13.4963 -2.8891 1.64116
rclavicle 3.63776e-014 -1.63003e-014
rhumerus 20.0378 48.579 -53.1214
rradius 99.9695
rwrist 5.71741
rhand 58.9553 -51.762
rfingers 7.12502
rthumb 74.3407 337.009
lclavicle 3.63776e-014 -1.63003e-014
lhumerus -41.3433 -17.5937 102.813
lradius 100.619
lwrist 12.5311
lhand -38.8419 -21.6713
lfingers 7.12502
lthumb -11.8512 7.9733
rfemur -4.0134 23.5871 25.5148
rtibia 3.5573
rfoot -12.4235 -23.5119
rtoes 1.69983
lfemur 9.41311 -48.849 -15.9451
ltibia -5.02269
lfoot -35.0385 57.6603
ltoes 21.7445
